$MeshFormat
2.2 0 8
$EndMeshFormat
$Nodes
114
1 -0.1890720129013062 0.02797239273786545 -0.003201328217983246
2 -0.1890720576047897 0.02226337045431137 0.02549993433058262
3 -0.1625555455684662 0.01698891073465347 0.02549993433058262
4 -0.160370796918869 0.02226337045431137 -0.003201328217983246
5 -0.1890720576047897 0.006005413830280304 0.04983168467879295
6 -0.1890720427036285 -0.01832634024322033 0.06608963757753372
7 -0.1780885607004166 -0.0205110888928175 0.06608963757753372
8 -0.168777197599411 0.001968514174222946 0.04983168467879295
9 -0.1890720576047897 -0.01832633279263973 -0.07249229401350021
10 -0.1890720278024673 0.006005402654409409 -0.05623433366417885
11 -0.168777197599411 0.001968514174222946 -0.05623433366417885
12 -0.1780885607004166 -0.0205110888928175 -0.07249229401350021
13 -0.1890720576047897 0.02226337790489197 -0.03190258145332336
14 -0.1625555455684662 0.01698891073465347 -0.03190258145332336
15 -0.1890720576047897 -0.04702761024236679 0.07179867476224899
16 -0.1890720576047897 -0.04702760279178619 -0.07820133119821548
17 -0.151572048664093 -0.009527597576379776 -0.05623433366417885
18 -0.168777197599411 -0.02673274278640747 -0.07249229401350021
19 -0.1360390335321426 0.006005410104990005 -0.003201328217983246
20 -0.1400759369134903 0.001968514174222946 -0.03190258145332336
21 -0.151572048664093 -0.009527597576379776 0.04983168467879295
22 -0.1400759369134903 0.001968514174222946 0.02549993433058262
23 -0.168777197599411 -0.02673274092376232 0.06608963757753372
24 -0.1625555455684662 -0.03604410216212273 0.06608963757753372
25 -0.1625555455684662 -0.03604410588741302 -0.07249229401350021
26 -0.1250555366277695 -0.02051109634339809 -0.03190258145332336
27 -0.1400759369134903 -0.02673275023698807 -0.05623433366417885
28 -0.1250555366277695 -0.02051109634339809 0.02549993433058262
29 -0.1197810769081116 -0.01832634769380093 -0.003201328217983246
30 -0.1400759369134903 -0.02673275023698807 0.04983168467879295
31 -0.1197810769081116 -0.04702761024236679 -0.03190258145332336
32 -0.1360390335321426 -0.04702761024236679 -0.05623433366417885
33 -0.1197810769081116 -0.04702761024236679 0.02549993433058262
34 -0.1140720546245575 -0.04702761396765709 -0.003201328217983246
35 -0.160370796918869 -0.04702760279178619 0.06608963757753372
36 -0.1360390335321426 -0.04702761024236679 0.04983168467879295
37 -0.160370796918869 -0.04702760651707649 -0.07249229401350021
38 -0.1400759369134903 -0.06732247024774551 -0.05623433366417885
39 -0.1625555455684662 -0.05801110342144966 -0.07249229401350021
40 -0.1197810992598534 -0.07572887092828751 -0.003201328217983246
41 -0.1250555515289307 -0.07354412227869034 -0.03190258145332336
42 -0.1400759369134903 -0.06732247024774551 0.04983168467879295
43 -0.1250555515289307 -0.07354412227869034 0.02549993433058262
44 -0.1625555455684662 -0.05801109969615936 0.06608963757753372
45 -0.1360390484333038 -0.1000606268644333 -0.003201328217983246
46 -0.1400759518146515 -0.09602373838424683 -0.03190258145332336
47 -0.151572048664093 -0.08452761173248291 0.04983168467879295
48 -0.1400759518146515 -0.09602373838424683 0.02549993433058262
49 -0.168777197599411 -0.06732246279716492 0.06608963757753372
50 -0.168777197599411 -0.06732246279716492 -0.07249229401350021
51 -0.151572048664093 -0.08452761173248291 -0.05623433366417885
52 -0.1780885607004166 -0.07354411482810974 -0.07249229401350021
53 -0.1625555604696274 -0.1110441237688065 -0.03190258145332336
54 -0.168777197599411 -0.09602372348308563 -0.05623433366417885
55 -0.1625555604696274 -0.1110441237688065 0.02549993433058262
56 -0.1603708118200302 -0.1163185760378838 -0.003201328217983246
57 -0.1780885607004166 -0.07354411482810974 0.06608963757753372
58 -0.168777197599411 -0.09602372348308563 0.04983168467879295
59 -0.1890720725059509 -0.1163185760378838 0.02549993433058262
60 -0.1890720725059509 -0.1220276057720184 -0.003201328217983246
61 -0.1890720576047897 -0.07572886347770691 0.06608963757753372
62 -0.1890720576047897 -0.1000606194138527 0.04983168467879295
63 -0.1890720576047897 -0.1000606194138527 -0.05623433366417885
64 -0.1890720576047897 -0.07572886347770691 -0.07249229401350021
65 -0.1890720725059509 -0.1163185760378838 -0.03190258145332336
66 -0.2093669176101685 -0.09602371603250504 -0.05623433366417885
67 -0.2000555545091629 -0.07354410737752914 -0.07249229401350021
68 -0.2177733480930328 -0.1163185611367226 -0.003201328217983246
69 -0.2155885845422745 -0.1110441014170647 -0.03190258145332336
70 -0.2093669176101685 -0.09602371603250504 0.04983168467879295
71 -0.2155885845422745 -0.1110441014170647 0.02549993433058262
72 -0.2000555545091629 -0.07354410737752914 0.06608963757753372
73 -0.2265720665454865 -0.08452759683132172 0.04983168467879295
74 -0.2380681931972504 -0.09602369368076324 0.02549993433058262
75 -0.2093669176101685 -0.06732244789600372 0.06608963757753372
76 -0.2093669176101685 -0.06732244789600372 -0.07249229401350021
77 -0.2380681931972504 -0.09602369368076324 -0.03190258145332336
78 -0.2265720665454865 -0.08452759683132172 -0.05623433366417885
79 -0.2421050816774368 -0.1000605970621109 -0.003201328217983246
80 -0.2155885696411133 -0.05801108852028847 -0.07249229401350021
81 -0.2530885636806488 -0.07354408502578735 -0.03190258145332336
82 -0.2380681782960892 -0.06732244789600372 -0.05623433366417885
83 -0.2530885636806488 -0.07354408502578735 0.02549993433058262
84 -0.2583630383014679 -0.07572883367538452 -0.003201328217983246
85 -0.2155885696411133 -0.05801109224557877 0.06608963757753372
86 -0.2380681782960892 -0.06732244789600372 0.04983168467879295
87 -0.2177733182907104 -0.0470275916159153 0.06608963757753372
88 -0.2421050667762756 -0.047027587890625 0.04983168467879295
89 -0.2421050667762756 -0.047027587890625 -0.05623433366417885
90 -0.2177733182907104 -0.0470275916159153 -0.07249229401350021
91 -0.264072060585022 -0.04702756926417351 -0.003201328217983246
92 -0.2583630084991455 -0.0470275767147541 -0.03190258145332336
93 -0.2583630084991455 -0.0470275767147541 0.02549993433058262
94 -0.238068163394928 -0.02673273347318172 -0.05623433366417885
95 -0.2155885547399521 -0.03604409471154213 -0.07249229401350021
96 -0.2583630084991455 -0.01832631230354309 -0.003201328217983246
97 -0.2530885338783264 -0.0205110777169466 -0.03190258145332336
98 -0.238068163394928 -0.02673273347318172 0.04983168467879295
99 -0.2530885338783264 -0.0205110777169466 0.02549993433058262
100 -0.2155885547399521 -0.03604409098625183 0.06608963757753372
101 -0.2093669027090073 -0.02673273533582687 0.06608963757753372
102 -0.2093669027090073 -0.02673273533582687 -0.07249229401350021
103 -0.2380681335926056 0.001968521624803543 -0.03190258145332336
104 -0.2265720367431641 -0.009527593851089478 -0.05623433366417885
105 -0.2380681335926056 0.001968521624803543 0.02549993433058262
106 -0.2421050369739532 0.006005432456731796 -0.003201328217983246
107 -0.2265720367431641 -0.009527593851089478 0.04983168467879295
108 -0.2155885249376297 0.01698890328407288 -0.03190258145332336
109 -0.2093668878078461 0.001968510448932648 -0.05623433366417885
110 -0.2155885249376297 0.01698890328407288 0.02549993433058262
111 -0.2177732735872269 0.02226337790489197 -0.003201328217983246
112 -0.2000555396080017 -0.0205110888928175 0.06608963757753372
113 -0.2093668878078461 0.001968510448932648 0.04983168467879295
114 -0.2000555396080017 -0.0205110888928175 -0.07249229401350021
$EndNodes
$Elements
224
1 2 2 2 1 1 2 3
2 2 2 2 1 1 3 4
3 2 2 2 1 5 6 7
4 2 2 2 1 5 7 8
5 2 2 2 1 9 10 11
6 2 2 2 1 9 11 12
7 2 2 2 1 13 1 4
8 2 2 2 1 13 4 14
9 2 2 2 1 2 5 8
10 2 2 2 1 2 8 3
11 2 2 2 1 6 15 7
12 2 2 2 1 16 9 12
13 2 2 2 1 10 13 14
14 2 2 2 1 10 14 11
15 2 2 2 1 12 11 17
16 2 2 2 1 12 17 18
17 2 2 2 1 14 4 19
18 2 2 2 1 14 19 20
19 2 2 2 1 3 8 21
20 2 2 2 1 3 21 22
21 2 2 2 1 7 15 23
22 2 2 2 1 16 12 18
23 2 2 2 1 11 14 20
24 2 2 2 1 11 20 17
25 2 2 2 1 4 3 22
26 2 2 2 1 4 22 19
27 2 2 2 1 8 7 23
28 2 2 2 1 8 23 21
29 2 2 2 1 23 15 24
30 2 2 2 1 16 18 25
31 2 2 2 1 17 20 26
32 2 2 2 1 17 26 27
33 2 2 2 1 19 22 28
34 2 2 2 1 19 28 29
35 2 2 2 1 21 23 24
36 2 2 2 1 21 24 30
37 2 2 2 1 18 17 27
38 2 2 2 1 18 27 25
39 2 2 2 1 20 19 29
40 2 2 2 1 20 29 26
41 2 2 2 1 22 21 30
42 2 2 2 1 22 30 28
43 2 2 2 1 27 26 31
44 2 2 2 1 27 31 32
45 2 2 2 1 29 28 33
46 2 2 2 1 29 33 34
47 2 2 2 1 30 24 35
48 2 2 2 1 30 35 36
49 2 2 2 1 25 27 32
50 2 2 2 1 25 32 37
51 2 2 2 1 26 29 34
52 2 2 2 1 26 34 31
53 2 2 2 1 28 30 36
54 2 2 2 1 28 36 33
55 2 2 2 1 24 15 35
56 2 2 2 1 16 25 37
57 2 2 2 1 37 32 38
58 2 2 2 1 37 38 39
59 2 2 2 1 31 34 40
60 2 2 2 1 31 40 41
61 2 2 2 1 33 36 42
62 2 2 2 1 33 42 43
63 2 2 2 1 35 15 44
64 2 2 2 1 16 37 39
65 2 2 2 1 32 31 41
66 2 2 2 1 32 41 38
67 2 2 2 1 34 33 43
68 2 2 2 1 34 43 40
69 2 2 2 1 36 35 44
70 2 2 2 1 36 44 42
71 2 2 2 1 41 40 45
72 2 2 2 1 41 45 46
73 2 2 2 1 43 42 47
74 2 2 2 1 43 47 48
75 2 2 2 1 44 15 49
76 2 2 2 1 16 39 50
77 2 2 2 1 38 41 46
78 2 2 2 1 38 46 51
79 2 2 2 1 40 43 48
80 2 2 2 1 40 48 45
81 2 2 2 1 42 44 49
82 2 2 2 1 42 49 47
83 2 2 2 1 39 38 51
84 2 2 2 1 39 51 50
85 2 2 2 1 16 50 52
86 2 2 2 1 51 46 53
87 2 2 2 1 51 53 54
88 2 2 2 1 45 48 55
89 2 2 2 1 45 55 56
90 2 2 2 1 47 49 57
91 2 2 2 1 47 57 58
92 2 2 2 1 50 51 54
93 2 2 2 1 50 54 52
94 2 2 2 1 46 45 56
95 2 2 2 1 46 56 53
96 2 2 2 1 48 47 58
97 2 2 2 1 48 58 55
98 2 2 2 1 49 15 57
99 2 2 2 1 56 55 59
100 2 2 2 1 56 59 60
101 2 2 2 1 58 57 61
102 2 2 2 1 58 61 62
103 2 2 2 1 52 54 63
104 2 2 2 1 52 63 64
105 2 2 2 1 53 56 60
106 2 2 2 1 53 60 65
107 2 2 2 1 55 58 62
108 2 2 2 1 55 62 59
109 2 2 2 1 57 15 61
110 2 2 2 1 16 52 64
111 2 2 2 1 54 53 65
112 2 2 2 1 54 65 63
113 2 2 2 1 64 63 66
114 2 2 2 1 64 66 67
115 2 2 2 1 65 60 68
116 2 2 2 1 65 68 69
117 2 2 2 1 59 62 70
118 2 2 2 1 59 70 71
119 2 2 2 1 61 15 72
120 2 2 2 1 16 64 67
121 2 2 2 1 63 65 69
122 2 2 2 1 63 69 66
123 2 2 2 1 60 59 71
124 2 2 2 1 60 71 68
125 2 2 2 1 62 61 72
126 2 2 2 1 62 72 70
127 2 2 2 1 71 70 73
128 2 2 2 1 71 73 74
129 2 2 2 1 72 15 75
130 2 2 2 1 16 67 76
131 2 2 2 1 66 69 77
132 2 2 2 1 66 77 78
133 2 2 2 1 68 71 74
134 2 2 2 1 68 74 79
135 2 2 2 1 70 72 75
136 2 2 2 1 70 75 73
137 2 2 2 1 67 66 78
138 2 2 2 1 67 78 76
139 2 2 2 1 69 68 79
140 2 2 2 1 69 79 77
141 2 2 2 1 16 76 80
142 2 2 2 1 78 77 81
143 2 2 2 1 78 81 82
144 2 2 2 1 79 74 83
145 2 2 2 1 79 83 84
146 2 2 2 1 73 75 85
147 2 2 2 1 73 85 86
148 2 2 2 1 76 78 82
149 2 2 2 1 76 82 80
150 2 2 2 1 77 79 84
151 2 2 2 1 77 84 81
152 2 2 2 1 74 73 86
153 2 2 2 1 74 86 83
154 2 2 2 1 75 15 85
155 2 2 2 1 86 85 87
156 2 2 2 1 86 87 88
157 2 2 2 1 80 82 89
158 2 2 2 1 80 89 90
159 2 2 2 1 81 84 91
160 2 2 2 1 81 91 92
161 2 2 2 1 83 86 88
162 2 2 2 1 83 88 93
163 2 2 2 1 85 15 87
164 2 2 2 1 16 80 90
165 2 2 2 1 82 81 92
166 2 2 2 1 82 92 89
167 2 2 2 1 84 83 93
168 2 2 2 1 84 93 91
169 2 2 2 1 90 89 94
170 2 2 2 1 90 94 95
171 2 2 2 1 92 91 96
172 2 2 2 1 92 96 97
173 2 2 2 1 93 88 98
174 2 2 2 1 93 98 99
175 2 2 2 1 87 15 100
176 2 2 2 1 16 90 95
177 2 2 2 1 89 92 97
178 2 2 2 1 89 97 94
179 2 2 2 1 91 93 99
180 2 2 2 1 91 99 96
181 2 2 2 1 88 87 100
182 2 2 2 1 88 100 98
183 2 2 2 1 100 15 101
184 2 2 2 1 16 95 102
185 2 2 2 1 94 97 103
186 2 2 2 1 94 103 104
187 2 2 2 1 96 99 105
188 2 2 2 1 96 105 106
189 2 2 2 1 98 100 101
190 2 2 2 1 98 101 107
191 2 2 2 1 95 94 104
192 2 2 2 1 95 104 102
193 2 2 2 1 97 96 106
194 2 2 2 1 97 106 103
195 2 2 2 1 99 98 107
196 2 2 2 1 99 107 105
197 2 2 2 1 104 103 108
198 2 2 2 1 104 108 109
199 2 2 2 1 106 105 110
200 2 2 2 1 106 110 111
201 2 2 2 1 107 101 112
202 2 2 2 1 107 112 113
203 2 2 2 1 102 104 109
204 2 2 2 1 102 109 114
205 2 2 2 1 103 106 111
206 2 2 2 1 103 111 108
207 2 2 2 1 105 107 113
208 2 2 2 1 105 113 110
209 2 2 2 1 101 15 112
210 2 2 2 1 16 102 114
211 2 2 2 1 114 109 10
212 2 2 2 1 114 10 9
213 2 2 2 1 108 111 1
214 2 2 2 1 108 1 13
215 2 2 2 1 110 113 5
216 2 2 2 1 110 5 2
217 2 2 2 1 112 15 6
218 2 2 2 1 16 114 9
219 2 2 2 1 109 108 13
220 2 2 2 1 109 13 10
221 2 2 2 1 111 110 2
222 2 2 2 1 111 2 1
223 2 2 2 1 113 112 6
224 2 2 2 1 113 6 5
$EndElements
